HIERARCHY
ROOT SpineBase
{
  OFFSET 0.000000 0.000000 0.000000
  CHANNELS 6 Xposition Yposition Zposition Zrotation Xrotation Yrotation
  JOINT SpineMid
  {
    OFFSET -0.000000 28.223238 0.000000
    CHANNELS 3 Zrotation Xrotation Yrotation
    JOINT SpineShoulder
    {
      OFFSET 0.002164 20.873056 -0.710468
      CHANNELS 3 Zrotation Xrotation Yrotation
      JOINT Neck
      {
        OFFSET -0.052475 6.923591 -0.550195
        CHANNELS 3 Zrotation Xrotation Yrotation
        JOINT Head
        {
          OFFSET 6.729498 9.107997 3.595410
          CHANNELS 3 Zrotation Xrotation Yrotation
          End Site
          {
            OFFSET 0 0 0
          }
        }
      }
      JOINT ShoulderLeft
      {
        OFFSET -6.526615 -4.276450 -13.649588
        CHANNELS 3 Zrotation Xrotation Yrotation
        JOINT ElbowLeft
        {
          OFFSET -9.189299 -23.307978 -4.149784
          CHANNELS 3 Zrotation Xrotation Yrotation
          JOINT WristLeft
          {
            OFFSET -1.858064 -19.899869 1.697202
            CHANNELS 3 Zrotation Xrotation Yrotation
            JOINT HandLeft
            {
              OFFSET -0.344180 -5.225571 2.331179
              CHANNELS 3 Zrotation Xrotation Yrotation
              JOINT HandTipLeft
              {
                OFFSET -2.110035 -7.825369 1.185097
                CHANNELS 3 Zrotation Xrotation Yrotation
                End Site
                {
                  OFFSET 0 0 0
                }
              }
              JOINT ThumbLeft
              {
                OFFSET 3.477243 -0.798826 -0.053176
                CHANNELS 3 Zrotation Xrotation Yrotation
                End Site
                {
                  OFFSET 0 0 0
                }
              }
            }
          }
        }
      }
      JOINT ShoulderRight
      {
        OFFSET 9.092731 -4.307276 15.595681
        CHANNELS 3 Zrotation Xrotation Yrotation
        JOINT ElbowRight
        {
          OFFSET 7.709617 -16.220138 13.167142
          CHANNELS 3 Zrotation Xrotation Yrotation
          JOINT WristRight
          {
            OFFSET -14.797006 -15.507732 -16.840787
            CHANNELS 3 Zrotation Xrotation Yrotation
            JOINT HandRight
            {
              OFFSET -0.418316 -6.151540 2.628651
              CHANNELS 3 Zrotation Xrotation Yrotation
              JOINT HandTipRight
              {
                OFFSET -0.506405 -2.872105 -0.329829
                CHANNELS 3 Zrotation Xrotation Yrotation
                End Site
                {
                  OFFSET 0 0 0
                }
              }
              JOINT ThumbRight
              {
                OFFSET -1.665215 0.085252 -3.079610
                CHANNELS 3 Zrotation Xrotation Yrotation
                End Site
                {
                  OFFSET 0 0 0
                }
              }
            }
          }
        }
      }
    }
  }
  JOINT HipLeft
  {
    OFFSET -3.203750 0.931272 -9.104315
    CHANNELS 3 Zrotation Xrotation Yrotation
    JOINT KneeLeft
    {
      OFFSET -10.193512 -42.610508 3.192730
      CHANNELS 3 Zrotation Xrotation Yrotation
      JOINT AnkleLeft
      {
        OFFSET -8.553102 -33.991887 2.961865
        CHANNELS 3 Zrotation Xrotation Yrotation
        JOINT FootLeft
        {
          OFFSET 6.210593 -5.259179 0.221559
          CHANNELS 3 Zrotation Xrotation Yrotation
          End Site
          {
            OFFSET 0 0 0
          }
        }
      }
    }
  }
  JOINT HipRight
  {
    OFFSET 2.763370 0.851186 2.300236
    CHANNELS 3 Zrotation Xrotation Yrotation
    JOINT KneeRight
    {
      OFFSET 0.376831 -33.718411 3.634123
      CHANNELS 3 Zrotation Xrotation Yrotation
      JOINT AnkleRight
      {
        OFFSET -11.823088 -38.643775 16.512988
        CHANNELS 3 Zrotation Xrotation Yrotation
        JOINT FootRight
        {
          OFFSET -2.658776 -6.640849 -11.057210
          CHANNELS 3 Zrotation Xrotation Yrotation
          End Site
          {
            OFFSET 0 0 0
          }
        }
      }
    }
  }
}
MOTION
Frames: 10
Frame Time: 0.033333
20.323335 80.890588 322.000003 -1.149268 1.111372 -58.146262 0.379307 -0.071629 58.120926 0.254875 -0.088372 -0.019458 -0.644777 0.211356 -0.038912 0.000000 0.000000 0.000000 0.755706 -0.662156 0.059372 -0.000000 0.000000 0.000000 2.077493 -1.417384 1.041421 -3.762948 2.937938 -1.577766 0.000000 0.000000 0.000000 0.000000 0.000000 0.000000 0.755706 -0.662156 0.059372 -0.000000 0.000000 0.000000 -0.000000 0.000000 0.000000 0.326482 -1.971034 0.316470 0.000000 0.000000 0.000000 0.000000 0.000000 0.000000 1.656557 1.881068 58.082223 -1.322004 -0.698338 0.059753 1.004344 1.118501 1.340015 0.000000 0.000000 0.000000 1.994303 -1.110289 58.029891 3.858477 -2.838838 2.568600 -5.813109 7.423078 1.956293 0.000000 0.000000 0.000000
20.501674 80.820496 322.080810 -0.884248 1.013287 -57.211254 0.221825 -0.158007 57.186554 0.175935 -0.041273 -0.020528 -0.691194 0.243223 -0.087399 0.000000 0.000000 0.000000 0.721659 -0.699230 0.056423 -0.000000 0.000000 0.000000 2.343650 -1.477631 1.168040 -3.986712 2.691453 -1.606902 0.000000 0.000000 0.000000 0.000000 0.000000 0.000000 0.721659 -0.699230 0.056423 -0.000000 0.000000 0.000000 -0.000000 0.000000 0.000000 0.448901 -2.398002 0.381898 0.000000 0.000000 0.000000 0.000000 0.000000 0.000000 1.105982 1.624290 57.070529 -1.077866 -0.965681 0.140766 1.393835 0.639971 0.795439 0.000000 0.000000 0.000000 2.516578 -1.097527 57.159399 2.267047 -0.799406 1.582311 -4.958577 6.361509 2.479192 0.000000 0.000000 0.000000
20.692474 80.895434 322.225219 -0.621313 0.837268 -57.449024 0.053436 -0.186979 57.426309 0.064257 0.027953 -0.022912 -0.634001 0.266542 -0.157433 0.000000 0.000000 0.000000 0.686522 -0.718961 0.053385 -0.000000 0.000000 0.000000 2.419369 -1.479915 1.202894 -4.170472 2.417883 -1.579437 0.000000 0.000000 0.000000 0.000000 0.000000 0.000000 0.686522 -0.718961 0.053385 -0.000000 0.000000 0.000000 -0.000000 0.000000 0.000000 0.495748 -2.475922 0.391669 0.000000 0.000000 0.000000 0.000000 0.000000 0.000000 0.610696 1.419734 57.265872 -0.900552 -1.089219 0.184061 1.260689 0.501282 0.631474 0.000000 0.000000 0.000000 2.190776 -1.009664 57.413348 1.190213 0.532803 0.723160 -3.508328 4.408302 2.354959 0.000000 0.000000 0.000000
20.772417 81.023630 322.335524 -0.534770 0.722125 -58.212574 0.001996 -0.148010 58.192270 -0.006458 0.077818 -0.024552 -0.374816 0.242425 -0.250469 0.000000 0.000000 0.000000 0.666566 -0.719728 0.051674 -0.000000 0.000000 0.000000 2.142743 -1.120589 1.047468 -3.216066 1.747392 -1.297416 0.000000 0.000000 0.000000 0.000000 0.000000 0.000000 0.666566 -0.719728 0.051674 -0.000000 0.000000 0.000000 -0.000000 0.000000 0.000000 0.484640 -2.294653 0.359788 0.000000 0.000000 0.000000 0.000000 0.000000 0.000000 0.541716 1.396986 58.051140 -0.935276 -1.000144 0.160604 1.149621 0.736405 0.900241 0.000000 0.000000 0.000000 1.104428 -1.098358 58.112847 0.885277 0.796769 0.098230 -0.796836 2.141644 0.468249 0.000000 0.000000 0.000000
20.729359 81.210747 322.422358 -0.623596 0.652514 -59.660912 0.025535 -0.048828 59.641766 -0.034330 0.102619 -0.026538 0.121017 0.166080 -0.369065 0.000000 0.000000 0.000000 0.687749 -0.707852 0.053508 -0.000000 0.000000 0.000000 1.396768 -0.131510 0.633586 -1.741664 1.203068 -0.964261 0.000000 0.000000 0.000000 0.000000 0.000000 0.000000 0.687749 -0.707852 0.053508 -0.000000 0.000000 0.000000 -0.000000 0.000000 0.000000 0.415466 -1.858362 0.287437 0.000000 0.000000 0.000000 0.000000 0.000000 0.000000 0.901258 1.570406 59.591463 -1.186221 -0.669291 0.064113 1.039256 0.890950 1.076642 0.000000 0.000000 0.000000 -0.793455 -1.341040 59.418351 1.834914 0.429097 -0.240062 2.612929 -1.869101 -2.950138 0.000000 0.000000 0.000000
20.658199 81.421237 322.512755 -0.743631 0.594249 -61.295214 0.044634 0.050576 61.276160 -0.052695 0.135220 -0.028928 0.696412 -0.019555 -0.441362 0.000000 0.000000 0.000000 0.731138 -0.713958 0.057215 -0.000000 0.000000 0.000000 0.717509 0.252644 0.302291 -0.660237 1.271480 -0.709208 0.000000 0.000000 0.000000 0.000000 0.000000 0.000000 0.731138 -0.713958 0.057215 -0.000000 0.000000 0.000000 -0.000000 0.000000 0.000000 0.333101 -1.432612 0.218947 0.000000 0.000000 0.000000 0.000000 0.000000 0.000000 1.182384 1.771718 61.296220 -1.378268 -0.408014 -0.010543 0.745552 1.237455 1.473995 0.000000 0.000000 0.000000 -2.261068 -1.313808 60.969924 2.504398 -0.584198 -0.280150 5.161311 -5.283688 -5.658203 0.000000 0.000000 0.000000
20.537542 81.638183 322.578033 -0.933287 0.588949 -62.819724 0.108566 0.164943 62.800053 -0.050682 0.177923 -0.030846 1.230963 -0.149303 -0.549623 0.000000 0.000000 0.000000 0.788316 -0.744872 0.062089 -0.000000 0.000000 0.000000 -0.000000 0.000000 0.000000 1.356790 2.345500 -0.457698 0.000000 0.000000 0.000000 0.000000 0.000000 0.000000 0.788316 -0.744872 0.062089 -0.000000 0.000000 0.000000 -0.000000 0.000000 0.000000 0.227013 -0.918115 0.137808 0.000000 0.000000 0.000000 0.000000 0.000000 0.000000 1.558286 2.051768 62.892908 -1.603837 -0.137815 -0.088835 0.538060 1.726405 2.043186 0.000000 0.000000 0.000000 -3.686532 -1.397305 62.404499 3.711517 -2.345305 0.147165 6.977108 -9.206063 -8.176145 0.000000 0.000000 0.000000
20.352169 81.838036 322.598912 -1.203016 0.649525 -63.940590 0.173037 0.265629 63.918079 -0.014336 0.207199 -0.033703 1.549132 -0.247910 -0.598425 0.000000 0.000000 0.000000 0.903539 -0.816935 0.072007 -0.000000 0.000000 0.000000 -0.000000 0.000000 0.000000 0.436092 2.584209 -0.643570 0.000000 0.000000 0.000000 0.000000 0.000000 0.000000 0.903539 -0.816935 0.072007 -0.000000 0.000000 0.000000 -0.000000 0.000000 0.000000 -0.000000 0.000000 0.000000 0.000000 0.000000 0.000000 0.000000 0.000000 0.000000 2.084889 2.458036 64.090874 -1.920412 0.148768 -0.176312 0.389569 1.903445 2.250187 0.000000 0.000000 0.000000 -4.746367 -1.484188 63.451528 4.525867 -3.379939 0.302833 9.776096 -15.323824 -11.194670 0.000000 0.000000 0.000000
20.155993 81.987007 322.589582 -1.504488 0.771461 -64.712018 0.269260 0.349838 64.686390 0.046414 0.216687 -0.036031 2.139262 -0.505039 -0.631996 0.000000 0.000000 0.000000 1.027758 -0.892747 0.082859 -0.000000 0.000000 0.000000 -0.000000 0.000000 0.000000 -0.444611 2.377403 -0.700704 0.000000 0.000000 0.000000 0.000000 0.000000 0.000000 1.027758 -0.892747 0.082859 -0.000000 0.000000 0.000000 -0.000000 0.000000 0.000000 -0.000000 0.000000 0.000000 0.000000 0.000000 0.000000 0.000000 0.000000 0.000000 2.651317 2.868028 64.928566 -2.219217 0.409213 -0.255157 0.221270 2.286821 2.701393 0.000000 0.000000 0.000000 -5.155124 -1.351395 64.212100 4.979522 -4.808365 0.688994 10.580607 -14.416801 -13.917665 0.000000 0.000000 0.000000
19.947090 82.063798 322.538340 -1.812920 0.946758 -64.932633 0.433551 0.443782 64.905676 0.121316 0.199686 -0.036218 2.608322 -0.682796 -0.676718 0.000000 0.000000 0.000000 1.107078 -0.940083 0.089871 -0.000000 0.000000 0.000000 -0.000000 0.000000 0.000000 -1.600319 3.445637 -1.124450 0.000000 0.000000 0.000000 0.000000 0.000000 0.000000 1.107078 -0.940083 0.089871 -0.000000 0.000000 0.000000 -0.000000 0.000000 0.000000 -0.000000 0.000000 0.000000 0.000000 0.000000 0.000000 0.000000 0.000000 0.000000 3.246605 3.276951 65.201697 -2.527135 0.617752 -0.321972 0.313392 2.428692 2.867744 0.000000 0.000000 0.000000 -7.187629 -1.510264 64.309227 6.323544 -6.739931 0.972766 12.790718 -17.111220 -17.671226 0.000000 0.000000 0.000000
